<?xml version="1.0" standalone="no"?>
<!DOCTYPE svg PUBLIC "-//W3C//DTD SVG 20010904//EN"
 "http://www.w3.org/TR/2001/REC-SVG-20010904/DTD/svg10.dtd">
<svg version="1.0" xmlns="http://www.w3.org/2000/svg"
 width="512.000000pt" height="512.000000pt" viewBox="0 0 512.000000 512.000000"
 preserveAspectRatio="xMidYMid meet">
<metadata>
Created by potrace 1.14, written by Peter Selinger 2001-2017
</metadata>
<g transform="translate(0.000000,512.000000) scale(0.100000,-0.100000)"
fill="#000000" stroke="none">
<path d="M1721 3676 c-14 -17 -77 -372 -117 -661 -2 -16 -6 -39 -8 -50 -2 -11
-9 -56 -16 -100 -6 -44 -13 -91 -16 -105 -2 -14 -7 -45 -10 -70 -3 -25 -8 -54
-10 -65 -4 -17 -16 -93 -29 -175 -2 -14 -7 -47 -11 -75 -3 -27 -8 -59 -10 -70
-2 -11 -9 -49 -14 -85 -6 -36 -13 -76 -15 -90 -3 -14 -7 -46 -10 -71 -3 -25
-8 -56 -11 -70 -3 -13 -7 -40 -10 -59 -2 -19 -7 -47 -10 -62 l-5 -27 -40 25
c-95 59 -138 115 -143 182 -5 72 -31 119 -72 132 -60 20 -95 16 -121 -14 -49
-57 -15 -155 90 -261 141 -142 376 -204 567 -149 71 20 186 76 225 109 l30 25
-55 -24 c-67 -28 -117 -41 -195 -52 -22 -3 -46 -7 -54 -10 -14 -5 -13 12 13
201 8 55 17 123 21 150 3 28 10 77 15 110 5 33 12 85 15 115 3 30 10 82 15
115 5 33 12 80 15 105 3 25 8 56 10 70 2 14 6 44 9 68 18 132 20 142 30 131 2
-2 83 -166 180 -364 98 -198 181 -367 186 -375 4 -8 27 -52 50 -97 23 -46 73
-143 112 -215 38 -73 84 -160 101 -193 71 -137 108 -195 126 -195 26 0 42 22
109 150 33 63 90 171 126 240 37 69 170 334 297 589 158 317 234 460 239 450
8 -13 13 -49 26 -164 2 -27 9 -72 14 -100 5 -27 12 -77 15 -110 3 -33 8 -69
10 -80 2 -11 7 -40 10 -65 3 -25 7 -54 9 -65 4 -21 16 -118 22 -170 1 -16 5
-43 8 -60 3 -16 10 -66 16 -111 6 -44 12 -90 15 -102 3 -19 -1 -22 -25 -22
-56 0 -204 39 -275 72 -41 19 30 -32 87 -62 180 -97 357 -110 530 -40 126 52
214 124 275 229 57 96 31 182 -56 183 -75 1 -131 -63 -131 -148 0 -39 -13 -64
-60 -116 -22 -24 -102 -78 -117 -78 -6 0 -15 21 -19 48 -3 26 -8 55 -10 66 -2
10 -6 44 -10 75 -3 31 -8 59 -10 62 -2 4 -6 23 -9 43 -20 144 -21 149 -50 331
-9 55 -18 111 -20 125 -2 14 -13 86 -25 160 -12 74 -23 146 -25 160 -2 14 -13
86 -25 160 -26 156 -28 169 -35 230 -3 25 -8 56 -10 70 -3 14 -8 41 -11 60 -4
19 -8 42 -9 50 -8 37 -17 130 -14 132 2 2 -6 18 -19 36 -51 71 -76 40 -225
-293 -25 -55 -61 -134 -80 -175 -19 -41 -61 -131 -92 -200 -32 -69 -69 -150
-82 -180 -176 -382 -315 -686 -335 -730 l-25 -55 -46 99 c-26 54 -47 100 -47
101 0 2 -21 47 -46 102 -25 54 -65 141 -89 193 -24 52 -58 129 -78 170 -19 41
-45 98 -57 125 -13 28 -51 111 -85 185 -34 74 -72 156 -83 181 -212 466 -235
509 -271 509 -10 0 -24 -6 -30 -14z"/>
<path d="M220 2104 c68 -181 296 -324 683 -429 53 -14 105 -28 115 -30 9 -2
29 -6 45 -10 53 -14 26 4 -40 25 -93 30 -185 82 -273 153 -41 34 -77 64 -80
67 -6 7 -128 95 -195 142 -72 50 -176 99 -224 105 l-42 6 11 -29z"/>
<path d="M4817 2115 c-59 -20 -187 -101 -311 -194 -61 -46 -113 -87 -116 -90
-16 -19 -103 -83 -146 -107 -27 -15 -89 -42 -139 -60 -49 -18 -80 -33 -67 -34
13 0 31 4 40 9 9 5 33 11 52 14 81 12 313 88 410 133 195 92 314 197 359 317
10 25 9 27 -17 27 -15 -1 -44 -7 -65 -15z"/>
<path d="M717 2033 c-6 -6 28 -68 58 -105 55 -68 190 -139 365 -191 138 -42
213 -57 132 -28 -74 28 -129 59 -187 106 -86 71 -168 131 -223 165 -53 33
-136 63 -145 53z"/>
<path d="M4314 2011 c-66 -34 -159 -99 -259 -179 -44 -36 -107 -77 -140 -92
-111 -50 -113 -51 -88 -44 13 3 33 7 46 10 13 2 80 22 148 44 181 58 321 147
366 233 29 56 3 66 -73 28z"/>
</g>
</svg>
